<svg xmlns="http://www.w3.org/2000/svg" width="1200" height="1600" viewBox="0 0 1200 1600">
  <defs>
    <pattern id="grid" width="24" height="24" patternUnits="userSpaceOnUse">
      <path d="M 24 0 L 0 0 0 24" fill="none" stroke="#e9edf2" stroke-width="1"/>
    </pattern>
    <filter id="shadow" x="-20%" y="-20%" width="140%" height="140%">
      <feDropShadow dx="0" dy="8" stdDeviation="10" flood-color="#0b1f3a" flood-opacity="0.10"/>
    </filter>
  </defs>
  <rect width="1200" height="1600" fill="#f7f8fa"/>
  <rect width="1200" height="1600" fill="url(#grid)"/>
  <text x="60" y="74" font-family="Inter, Arial, sans-serif" font-size="42" font-weight="800" fill="#0b1f3a">Editorial Visual Engine</text>
  <text x="60" y="112" font-family="Inter, Arial, sans-serif" font-size="20" fill="#667085">Permanent visual grammar board, EV-01 to EV-08</text>

  <g transform="translate(60 160)" filter="url(#shadow)">
    <rect width="510" height="300" rx="20" fill="#ffffff" stroke="#d7dce3"/>
    <text x="24" y="36" font-family="Inter" font-size="16" font-weight="800" fill="#df7354">EV-01</text>
    <text x="92" y="36" font-family="Inter" font-size="22" font-weight="800" fill="#0b1f3a">Benchmark Field Guide</text>
    <rect x="24" y="56" width="220" height="70" rx="10" fill="#ffffff" stroke="#cdd4dd"/>
    <rect x="36" y="72" width="126" height="12" rx="6" fill="#df7354"/>
    <rect x="36" y="94" width="176" height="8" rx="4" fill="#c6ced8"/>
    <rect x="266" y="56" width="220" height="70" rx="10" fill="#ffffff" stroke="#cdd4dd"/>
    <circle cx="290" cy="84" r="6" fill="#0b1f3a"/><circle cx="344" cy="84" r="6" fill="#df7354"/><circle cx="398" cy="84" r="6" fill="#0b1f3a"/>
    <line x1="290" y1="84" x2="398" y2="84" stroke="#adb7c5" stroke-width="2"/>
    <g fill="#f5f7fa" stroke="#d7dce3">
      <rect x="24" y="145" width="462" height="32" rx="8"/><rect x="24" y="188" width="462" height="32" rx="8"/><rect x="24" y="231" width="462" height="32" rx="8"/>
    </g>
    <circle cx="44" cy="161" r="10" fill="#55b9ec"/><circle cx="44" cy="204" r="10" fill="#c464e8"/><circle cx="44" cy="247" r="10" fill="#43c9a8"/>
  </g>

  <g transform="translate(630 160)" filter="url(#shadow)">
    <rect width="510" height="300" rx="20" fill="#ffffff" stroke="#d7dce3"/>
    <text x="24" y="36" font-family="Inter" font-size="16" font-weight="800" fill="#6b46c1">EV-02</text>
    <text x="92" y="36" font-family="Inter" font-size="22" font-weight="800" fill="#15171a">Circular Multi-Agent Map</text>
    <circle cx="255" cy="166" r="62" fill="#ffffff" stroke="#cfd5dd" stroke-width="2"/>
    <rect x="207" y="142" width="96" height="48" rx="10" fill="#f7f2ff" stroke="#b69de8"/>
    <circle cx="255" cy="166" r="112" fill="none" stroke="#a9afb8" stroke-dasharray="4 6" stroke-width="2"/>
    <g fill="#ff7a1a" stroke="#ffffff" stroke-width="5">
      <circle cx="255" cy="54" r="22"/><circle cx="362" cy="132" r="22"/><circle cx="321" cy="256" r="22"/><circle cx="189" cy="256" r="22"/><circle cx="148" cy="132" r="22"/>
    </g>
    <g fill="#6b46c1"><rect x="220" y="70" width="70" height="18" rx="9"/><rect x="368" y="123" width="70" height="18" rx="9"/><rect x="304" y="270" width="70" height="18" rx="9"/><rect x="136" y="270" width="70" height="18" rx="9"/><rect x="72" y="123" width="70" height="18" rx="9"/></g>
  </g>

  <g transform="translate(60 500)" filter="url(#shadow)">
    <rect width="510" height="300" rx="20" fill="#ffffff" stroke="#d7dce3"/>
    <text x="24" y="36" font-family="Inter" font-size="16" font-weight="800" fill="#ff5a1f">EV-03</text>
    <text x="92" y="36" font-family="Inter" font-size="22" font-weight="800" fill="#15171a">Launch Pipeline Poster</text>
    <text x="24" y="76" font-family="Inter" font-size="28" font-weight="900" fill="#15171a">BREAKING: <tspan fill="#ff5a1f">New workflow</tspan></text>
    <rect x="140" y="94" width="230" height="64" rx="12" fill="#ffffff" stroke="#d7dce3"/>
    <g transform="translate(20 182)">
      <rect x="0" y="0" width="86" height="72" rx="12" fill="#fff5f1" stroke="#f4a38c"/>
      <rect x="96" y="0" width="86" height="72" rx="12" fill="#fff9e8" stroke="#e8c56b"/>
      <rect x="192" y="0" width="86" height="72" rx="12" fill="#effbf4" stroke="#7fc7a0"/>
      <rect x="288" y="0" width="86" height="72" rx="12" fill="#eef6ff" stroke="#7db4e8"/>
      <rect x="384" y="0" width="86" height="72" rx="12" fill="#f7f1ff" stroke="#ad88df"/>
      <path d="M86 36 H96 M182 36 H192 M278 36 H288 M374 36 H384" stroke="#15171a" stroke-width="2"/>
    </g>
  </g>

  <g transform="translate(630 500)" filter="url(#shadow)">
    <rect width="510" height="300" rx="20" fill="#11100f" stroke="#4a2a1e"/>
    <text x="24" y="36" font-family="IBM Plex Mono" font-size="16" font-weight="800" fill="#ff7344">EV-04</text>
    <text x="92" y="36" font-family="Inter" font-size="22" font-weight="800" fill="#f7f3ef">Dark GTM Architecture</text>
    <rect x="154" y="58" width="202" height="52" rx="10" fill="#171513" stroke="#ff7344"/>
    <line x1="255" y1="110" x2="255" y2="140" stroke="#ff7344" stroke-dasharray="4 5"/>
    <line x1="96" y1="140" x2="414" y2="140" stroke="#ff7344" stroke-dasharray="4 5"/>
    <g fill="#171513" stroke="#ff7344"><rect x="42" y="152" width="130" height="52" rx="10"/><rect x="190" y="152" width="130" height="52" rx="10"/><rect x="338" y="152" width="130" height="52" rx="10"/></g>
    <g fill="#171513" stroke="#8b4a32"><rect x="42" y="222" width="204" height="54" rx="10"/><rect x="264" y="222" width="204" height="54" rx="10"/></g>
  </g>

  <g transform="translate(60 840)" filter="url(#shadow)">
    <rect width="510" height="300" rx="20" fill="#f5f0e9" stroke="#d7cec1"/>
    <text x="24" y="36" font-family="Inter" font-size="16" font-weight="800" fill="#c96f51">EV-05</text>
    <text x="92" y="36" font-family="Georgia" font-size="22" font-weight="800" fill="#15171a">Paper Step Playbook</text>
    <g><rect x="24" y="58" width="462" height="40" rx="6" fill="#edc0b1"/><rect x="24" y="106" width="462" height="40" rx="6" fill="#e3aa98"/><rect x="24" y="154" width="462" height="40" rx="6" fill="#d99076"/><rect x="24" y="202" width="462" height="40" rx="6" fill="#c96f51"/><rect x="24" y="250" width="462" height="30" rx="6" fill="#2a2927"/></g>
    <g fill="#252525"><rect x="36" y="68" width="72" height="20" rx="3"/><rect x="36" y="116" width="72" height="20" rx="3"/><rect x="36" y="164" width="72" height="20" rx="3"/></g>
    <g fill="#fff"><rect x="132" y="70" width="260" height="8" rx="4"/><rect x="132" y="120" width="300" height="8" rx="4"/><rect x="132" y="168" width="240" height="8" rx="4"/></g>
  </g>

  <g transform="translate(630 840)" filter="url(#shadow)">
    <rect width="510" height="300" rx="20" fill="#ffffff" stroke="#d7dce3"/>
    <text x="24" y="36" font-family="Inter" font-size="16" font-weight="800" fill="#df7354">EV-06</text>
    <text x="92" y="36" font-family="Inter" font-size="22" font-weight="800" fill="#0b1f3a">Advisor Board Synthesis</text>
    <g fill="#ffffff" stroke="#d7dce3"><rect x="24" y="58" width="105" height="42" rx="10"/><rect x="143" y="58" width="105" height="42" rx="10"/><rect x="262" y="58" width="105" height="42" rx="10"/><rect x="381" y="58" width="105" height="42" rx="10"/></g>
    <g fill="#ffffff" stroke="#d7dce3"><rect x="24" y="126" width="105" height="76" rx="12"/><rect x="143" y="126" width="105" height="76" rx="12"/><rect x="262" y="126" width="105" height="76" rx="12"/><rect x="381" y="126" width="105" height="76" rx="12"/></g>
    <path d="M76 202 C130 230 196 224 255 250 M195 202 C225 230 242 232 255 250 M314 202 C285 230 272 232 255 250 M433 202 C372 230 314 224 255 250" fill="none" stroke="#8dcfc7" stroke-width="2"/>
    <rect x="176" y="238" width="158" height="36" rx="12" fill="#ffffff" stroke="#df7354"/>
  </g>

  <g transform="translate(60 1180)" filter="url(#shadow)">
    <rect width="510" height="300" rx="20" fill="#111216" stroke="#2c3038"/>
    <text x="24" y="36" font-family="IBM Plex Mono" font-size="16" font-weight="800" fill="#8edb45">EV-07</text>
    <text x="92" y="36" font-family="IBM Plex Mono" font-size="22" font-weight="800" fill="#f3f4f6">Minimal Terminal Poster</text>
    <circle cx="172" cy="130" r="46" fill="#4285f4"/><text x="247" y="145" font-family="IBM Plex Mono" font-size="52" font-weight="800" fill="#8edb45">+</text><circle cx="340" cy="130" r="46" fill="#df7354"/>
    <rect x="48" y="200" width="414" height="62" rx="12" fill="#172015" stroke="#8edb45" stroke-width="2"/>
    <text x="68" y="238" font-family="IBM Plex Mono" font-size="26" font-weight="800" fill="#8edb45">GET THE GUIDE</text>
  </g>

  <g transform="translate(630 1180)" filter="url(#shadow)">
    <rect width="510" height="300" rx="20" fill="#071b39" stroke="#17345c"/>
    <text x="24" y="36" font-family="Inter" font-size="16" font-weight="800" fill="#ff8b5f">EV-08</text>
    <text x="92" y="36" font-family="Inter" font-size="22" font-weight="800" fill="#ffffff">Dense Company Org Chart</text>
    <rect x="194" y="52" width="122" height="44" rx="10" fill="#0b2850" stroke="#ff8b5f"/>
    <g stroke="#5ab4d8" stroke-dasharray="4 5"><line x1="255" y1="96" x2="255" y2="118"/><line x1="70" y1="118" x2="440" y2="118"/></g>
    <g fill="#0b2850" stroke="#24507f"><rect x="24" y="132" width="64" height="54" rx="8"/><rect x="96" y="132" width="64" height="54" rx="8"/><rect x="168" y="132" width="64" height="54" rx="8"/><rect x="240" y="132" width="64" height="54" rx="8"/><rect x="312" y="132" width="64" height="54" rx="8"/><rect x="384" y="132" width="64" height="54" rx="8"/></g>
    <g fill="#0a2448" stroke="#1d456f"><rect x="24" y="198" width="64" height="72" rx="8"/><rect x="96" y="198" width="64" height="72" rx="8"/><rect x="168" y="198" width="64" height="72" rx="8"/><rect x="240" y="198" width="64" height="72" rx="8"/><rect x="312" y="198" width="64" height="72" rx="8"/><rect x="384" y="198" width="64" height="72" rx="8"/></g>
  </g>

  <text x="60" y="1544" font-family="Inter, Arial, sans-serif" font-size="18" fill="#667085">Use the grammar, not the identity. Never copy creator names, logos, exact copy, or pixel-level composition.</text>
</svg>
